%TF.GenerationSoftware,KiCad,Pcbnew,9.0.2*%
%TF.CreationDate,2025-07-17T12:33:06-04:00*%
%TF.ProjectId,Mirror+QC_Control,4d697272-6f72-42b5-9143-5f436f6e7472,rev?*%
%TF.SameCoordinates,Original*%
%TF.FileFunction,Soldermask,Top*%
%TF.FilePolarity,Negative*%
%FSLAX46Y46*%
G04 Gerber Fmt 4.6, Leading zero omitted, Abs format (unit mm)*
G04 Created by KiCad (PCBNEW 9.0.2) date 2025-07-17 12:33:06*
%MOMM*%
%LPD*%
G01*
G04 APERTURE LIST*
G04 Aperture macros list*
%AMRoundRect*
0 Rectangle with rounded corners*
0 $1 Rounding radius*
0 $2 $3 $4 $5 $6 $7 $8 $9 X,Y pos of 4 corners*
0 Add a 4 corners polygon primitive as box body*
4,1,4,$2,$3,$4,$5,$6,$7,$8,$9,$2,$3,0*
0 Add four circle primitives for the rounded corners*
1,1,$1+$1,$2,$3*
1,1,$1+$1,$4,$5*
1,1,$1+$1,$6,$7*
1,1,$1+$1,$8,$9*
0 Add four rect primitives between the rounded corners*
20,1,$1+$1,$2,$3,$4,$5,0*
20,1,$1+$1,$4,$5,$6,$7,0*
20,1,$1+$1,$6,$7,$8,$9,0*
20,1,$1+$1,$8,$9,$2,$3,0*%
G04 Aperture macros list end*
%ADD10C,1.600000*%
%ADD11RoundRect,0.200000X-0.200000X-0.275000X0.200000X-0.275000X0.200000X0.275000X-0.200000X0.275000X0*%
%ADD12C,1.168400*%
%ADD13RoundRect,0.250000X-1.050000X1.050000X-1.050000X-1.050000X1.050000X-1.050000X1.050000X1.050000X0*%
%ADD14C,2.600000*%
%ADD15RoundRect,0.244000X-0.269000X0.244000X-0.269000X-0.244000X0.269000X-0.244000X0.269000X0.244000X0*%
%ADD16RoundRect,0.244000X0.269000X-0.244000X0.269000X0.244000X-0.269000X0.244000X-0.269000X-0.244000X0*%
%ADD17RoundRect,0.225000X-0.225000X-0.250000X0.225000X-0.250000X0.225000X0.250000X-0.225000X0.250000X0*%
%ADD18RoundRect,0.225000X0.225000X0.250000X-0.225000X0.250000X-0.225000X-0.250000X0.225000X-0.250000X0*%
%ADD19RoundRect,0.150000X-0.587500X-0.150000X0.587500X-0.150000X0.587500X0.150000X-0.587500X0.150000X0*%
%ADD20RoundRect,0.225000X-0.250000X0.225000X-0.250000X-0.225000X0.250000X-0.225000X0.250000X0.225000X0*%
%ADD21RoundRect,0.250000X-0.550000X-0.550000X0.550000X-0.550000X0.550000X0.550000X-0.550000X0.550000X0*%
%ADD22C,5.600000*%
%ADD23C,3.600000*%
%ADD24RoundRect,0.244000X-0.244000X-0.269000X0.244000X-0.269000X0.244000X0.269000X-0.244000X0.269000X0*%
%ADD25RoundRect,0.244000X0.244000X0.269000X-0.244000X0.269000X-0.244000X-0.269000X0.244000X-0.269000X0*%
%ADD26C,2.800000*%
%ADD27RoundRect,0.243750X0.243750X0.456250X-0.243750X0.456250X-0.243750X-0.456250X0.243750X-0.456250X0*%
%ADD28RoundRect,0.250000X0.262500X0.450000X-0.262500X0.450000X-0.262500X-0.450000X0.262500X-0.450000X0*%
%ADD29RoundRect,0.243750X-0.243750X-0.456250X0.243750X-0.456250X0.243750X0.456250X-0.243750X0.456250X0*%
%ADD30RoundRect,0.250000X-0.262500X-0.450000X0.262500X-0.450000X0.262500X0.450000X-0.262500X0.450000X0*%
G04 APERTURE END LIST*
D10*
%TO.C,U7*%
X130420000Y-65980000D03*
X132960000Y-65980000D03*
X135500000Y-65980000D03*
X138040000Y-65980000D03*
X127880000Y-65980000D03*
X125340000Y-65980000D03*
X122800000Y-65980000D03*
X138040000Y-63440000D03*
X138040000Y-60900000D03*
X138040000Y-58360000D03*
X138040000Y-55820000D03*
X138040000Y-53280000D03*
X138040000Y-50740000D03*
X138040000Y-48200000D03*
X138040000Y-45660000D03*
X138040000Y-43120000D03*
X138040000Y-40580000D03*
X138040000Y-38040000D03*
X138040000Y-35500000D03*
X138040000Y-32960000D03*
X135500000Y-35500000D03*
X122800000Y-63440000D03*
X122800000Y-60900000D03*
X122800000Y-58360000D03*
X122800000Y-55820000D03*
X122800000Y-53280000D03*
X122800000Y-50740000D03*
X122800000Y-48200000D03*
X122800000Y-45660000D03*
X122800000Y-43120000D03*
X122800000Y-40580000D03*
X122800000Y-38040000D03*
X122800000Y-35500000D03*
X122800000Y-32960000D03*
X135500000Y-60900000D03*
X135500000Y-58360000D03*
X132960000Y-60900000D03*
X132960000Y-58360000D03*
X130420000Y-60900000D03*
X130420000Y-58360000D03*
X127880000Y-60900000D03*
X127880000Y-58360000D03*
X125340000Y-60900000D03*
X125340000Y-58360000D03*
%TD*%
D11*
%TO.C,R1*%
X76850000Y-38000000D03*
X78500000Y-38000000D03*
%TD*%
D12*
%TO.C,J4*%
X132230000Y-73500000D03*
X133500000Y-73500000D03*
X132230000Y-74770000D03*
X133500000Y-74770000D03*
X132230000Y-76040000D03*
X133500000Y-76040000D03*
X132230000Y-77310000D03*
X133500000Y-77310000D03*
X132230000Y-78580000D03*
X133500000Y-78580000D03*
%TD*%
D13*
%TO.C,J3*%
X56500000Y-36500000D03*
D14*
X56500000Y-41580000D03*
X56500000Y-46660000D03*
X56500000Y-51740000D03*
X56500000Y-56820000D03*
X56500000Y-61900000D03*
%TD*%
D15*
%TO.C,C11*%
X99500000Y-76060000D03*
X99500000Y-74500000D03*
%TD*%
D16*
%TO.C,C19*%
X111000000Y-91940000D03*
X111000000Y-93500000D03*
%TD*%
D11*
%TO.C,R16*%
X106000000Y-102000000D03*
X104350000Y-102000000D03*
%TD*%
%TO.C,R4*%
X82775000Y-100846250D03*
X81125000Y-100846250D03*
%TD*%
D17*
%TO.C,R20*%
X71212500Y-70000000D03*
X69662500Y-70000000D03*
%TD*%
D11*
%TO.C,R8*%
X78650000Y-66000000D03*
X77000000Y-66000000D03*
%TD*%
%TO.C,R7*%
X78825000Y-64000000D03*
X77175000Y-64000000D03*
%TD*%
D18*
%TO.C,C2*%
X84225000Y-78000000D03*
X85775000Y-78000000D03*
%TD*%
D11*
%TO.C,R3*%
X78500000Y-40000000D03*
X76850000Y-40000000D03*
%TD*%
D19*
%TO.C,U2*%
X76625000Y-43550000D03*
X76625000Y-45450000D03*
X78500000Y-44500000D03*
%TD*%
D17*
%TO.C,R18*%
X71500000Y-44000000D03*
X69950000Y-44000000D03*
%TD*%
D20*
%TO.C,R19*%
X74000000Y-45050000D03*
X74000000Y-43500000D03*
%TD*%
D15*
%TO.C,C5*%
X78500000Y-49560000D03*
X78500000Y-48000000D03*
%TD*%
D11*
%TO.C,R2*%
X86000000Y-50500000D03*
X84350000Y-50500000D03*
%TD*%
D17*
%TO.C,C1*%
X86175000Y-52500000D03*
X84625000Y-52500000D03*
%TD*%
D21*
%TO.C,U11*%
X100195000Y-41690000D03*
D10*
X100195000Y-44230000D03*
X100195000Y-46770000D03*
X100195000Y-49310000D03*
X107815000Y-49310000D03*
X107815000Y-46770000D03*
X107815000Y-44230000D03*
X107815000Y-41690000D03*
%TD*%
D21*
%TO.C,U10*%
X81195000Y-39690000D03*
D10*
X81195000Y-42230000D03*
X81195000Y-44770000D03*
X81195000Y-47310000D03*
X88815000Y-47310000D03*
X88815000Y-44770000D03*
X88815000Y-42230000D03*
X88815000Y-39690000D03*
%TD*%
D21*
%TO.C,U6*%
X101195000Y-91690000D03*
D10*
X101195000Y-94230000D03*
X101195000Y-96770000D03*
X101195000Y-99310000D03*
X108815000Y-99310000D03*
X108815000Y-96770000D03*
X108815000Y-94230000D03*
X108815000Y-91690000D03*
%TD*%
D21*
%TO.C,U5*%
X78195000Y-90690000D03*
D10*
X78195000Y-93230000D03*
X78195000Y-95770000D03*
X78195000Y-98310000D03*
X85815000Y-98310000D03*
X85815000Y-95770000D03*
X85815000Y-93230000D03*
X85815000Y-90690000D03*
%TD*%
D21*
%TO.C,U3*%
X102195000Y-66690000D03*
D10*
X102195000Y-69230000D03*
X102195000Y-71770000D03*
X102195000Y-74310000D03*
X109815000Y-74310000D03*
X109815000Y-71770000D03*
X109815000Y-69230000D03*
X109815000Y-66690000D03*
%TD*%
D21*
%TO.C,U1*%
X81695000Y-65190000D03*
D10*
X81695000Y-67730000D03*
X81695000Y-70270000D03*
X81695000Y-72810000D03*
X89315000Y-72810000D03*
X89315000Y-70270000D03*
X89315000Y-67730000D03*
X89315000Y-65190000D03*
%TD*%
D22*
%TO.C,H1*%
X44500000Y-28500000D03*
D23*
X44500000Y-28500000D03*
%TD*%
%TO.C,H2*%
X44000000Y-102000000D03*
D22*
X44000000Y-102000000D03*
%TD*%
D23*
%TO.C,H3*%
X143000000Y-28500000D03*
D22*
X143000000Y-28500000D03*
%TD*%
%TO.C,H4*%
X143000000Y-101500000D03*
D23*
X143000000Y-101500000D03*
%TD*%
D11*
%TO.C,R11*%
X106692500Y-77000000D03*
X105042500Y-77000000D03*
%TD*%
D24*
%TO.C,C21*%
X104527500Y-103653750D03*
X106087500Y-103653750D03*
%TD*%
%TO.C,C20*%
X105220000Y-78500000D03*
X106780000Y-78500000D03*
%TD*%
%TO.C,C16*%
X80940000Y-102500000D03*
X82500000Y-102500000D03*
%TD*%
%TO.C,C15*%
X103440000Y-53500000D03*
X105000000Y-53500000D03*
%TD*%
D15*
%TO.C,C14*%
X76000000Y-99220000D03*
X76000000Y-100780000D03*
%TD*%
%TO.C,C13*%
X99000000Y-99500000D03*
X99000000Y-101060000D03*
%TD*%
%TO.C,C12*%
X88000000Y-91500000D03*
X88000000Y-93060000D03*
%TD*%
D16*
%TO.C,C10*%
X110500000Y-44280000D03*
X110500000Y-42720000D03*
%TD*%
D15*
%TO.C,C9*%
X78500000Y-74720000D03*
X78500000Y-76280000D03*
%TD*%
D16*
%TO.C,C8*%
X112000000Y-69280000D03*
X112000000Y-67720000D03*
%TD*%
D15*
%TO.C,C7*%
X92000000Y-65500000D03*
X92000000Y-67060000D03*
%TD*%
D25*
%TO.C,C6*%
X97500000Y-47720000D03*
X95940000Y-47720000D03*
%TD*%
D16*
%TO.C,C4*%
X91500000Y-42000000D03*
X91500000Y-40440000D03*
%TD*%
D20*
%TO.C,R21*%
X73937500Y-69500000D03*
X73937500Y-71050000D03*
%TD*%
D11*
%TO.C,R15*%
X97350000Y-94500000D03*
X99000000Y-94500000D03*
%TD*%
%TO.C,R12*%
X73850000Y-93500000D03*
X75500000Y-93500000D03*
%TD*%
%TO.C,R10*%
X96350000Y-69500000D03*
X98000000Y-69500000D03*
%TD*%
%TO.C,R9*%
X84450000Y-76000000D03*
X86100000Y-76000000D03*
%TD*%
%TO.C,R6*%
X103262500Y-52000000D03*
X104912500Y-52000000D03*
%TD*%
%TO.C,R5*%
X95675000Y-44500000D03*
X97325000Y-44500000D03*
%TD*%
D26*
%TO.C,TP_EN1*%
X139000000Y-89000000D03*
%TD*%
D27*
%TO.C,D1*%
X55787500Y-100000000D03*
X57662500Y-100000000D03*
%TD*%
D28*
%TO.C,R13*%
X60000000Y-100000000D03*
X61825000Y-100000000D03*
%TD*%
D26*
%TO.C,SumStage1*%
X92000000Y-101000000D03*
%TD*%
%TO.C,SumStage2*%
X113000000Y-101500000D03*
%TD*%
%TO.C,GND3*%
X97000000Y-89500000D03*
%TD*%
%TO.C,GND2*%
X97500000Y-65000000D03*
%TD*%
D19*
%TO.C,U8*%
X76500000Y-69550000D03*
X76500000Y-71450000D03*
X78375000Y-70500000D03*
%TD*%
D26*
%TO.C,YStage1*%
X92000000Y-77000000D03*
%TD*%
%TO.C,YStage2*%
X113500000Y-77000000D03*
%TD*%
%TO.C,GND4*%
X139000000Y-97500000D03*
%TD*%
%TO.C,TP_DIN1*%
X133000000Y-100500000D03*
%TD*%
%TO.C,TP_SYNC1*%
X133000000Y-92500000D03*
%TD*%
%TO.C,GND1*%
X98500000Y-38000000D03*
%TD*%
%TO.C,XStage1*%
X90500000Y-51000000D03*
%TD*%
%TO.C,XStage2*%
X112500000Y-51500000D03*
%TD*%
D29*
%TO.C,D2*%
X57600000Y-96500000D03*
X55725000Y-96500000D03*
%TD*%
D30*
%TO.C,R17*%
X59837500Y-93000000D03*
X61662500Y-93000000D03*
%TD*%
%TO.C,R14*%
X59837500Y-96500000D03*
X61662500Y-96500000D03*
%TD*%
D27*
%TO.C,D3*%
X57475000Y-93000000D03*
X55600000Y-93000000D03*
%TD*%
D13*
%TO.C,J2*%
X56500000Y-69500000D03*
D14*
X56500000Y-74580000D03*
X56500000Y-79660000D03*
X56500000Y-84740000D03*
%TD*%
M02*
