%TF.GenerationSoftware,KiCad,Pcbnew,9.0.2*%
%TF.CreationDate,2025-07-17T12:34:20-04:00*%
%TF.ProjectId,Mirror+QC_Control,4d697272-6f72-42b5-9143-5f436f6e7472,rev?*%
%TF.SameCoordinates,Original*%
%TF.FileFunction,Copper,L2,Bot*%
%TF.FilePolarity,Positive*%
%FSLAX46Y46*%
G04 Gerber Fmt 4.6, Leading zero omitted, Abs format (unit mm)*
G04 Created by KiCad (PCBNEW 9.0.2) date 2025-07-17 12:34:20*
%MOMM*%
%LPD*%
G01*
G04 APERTURE LIST*
G04 Aperture macros list*
%AMRoundRect*
0 Rectangle with rounded corners*
0 $1 Rounding radius*
0 $2 $3 $4 $5 $6 $7 $8 $9 X,Y pos of 4 corners*
0 Add a 4 corners polygon primitive as box body*
4,1,4,$2,$3,$4,$5,$6,$7,$8,$9,$2,$3,0*
0 Add four circle primitives for the rounded corners*
1,1,$1+$1,$2,$3*
1,1,$1+$1,$4,$5*
1,1,$1+$1,$6,$7*
1,1,$1+$1,$8,$9*
0 Add four rect primitives between the rounded corners*
20,1,$1+$1,$2,$3,$4,$5,0*
20,1,$1+$1,$4,$5,$6,$7,0*
20,1,$1+$1,$6,$7,$8,$9,0*
20,1,$1+$1,$8,$9,$2,$3,0*%
G04 Aperture macros list end*
%TA.AperFunction,ComponentPad*%
%ADD10C,1.600000*%
%TD*%
%TA.AperFunction,ComponentPad*%
%ADD11C,1.168400*%
%TD*%
%TA.AperFunction,ComponentPad*%
%ADD12RoundRect,0.250000X-1.050000X1.050000X-1.050000X-1.050000X1.050000X-1.050000X1.050000X1.050000X0*%
%TD*%
%TA.AperFunction,ComponentPad*%
%ADD13C,2.600000*%
%TD*%
%TA.AperFunction,ComponentPad*%
%ADD14RoundRect,0.250000X-0.550000X-0.550000X0.550000X-0.550000X0.550000X0.550000X-0.550000X0.550000X0*%
%TD*%
%TA.AperFunction,ConnectorPad*%
%ADD15C,5.600000*%
%TD*%
%TA.AperFunction,ComponentPad*%
%ADD16C,3.600000*%
%TD*%
%TA.AperFunction,ComponentPad*%
%ADD17C,2.800000*%
%TD*%
%TA.AperFunction,ViaPad*%
%ADD18C,0.600000*%
%TD*%
%TA.AperFunction,Conductor*%
%ADD19C,0.200000*%
%TD*%
%TA.AperFunction,Conductor*%
%ADD20C,0.381000*%
%TD*%
G04 APERTURE END LIST*
D10*
%TO.P,U7,17,GND*%
%TO.N,GND*%
X130420000Y-65980000D03*
%TO.P,U7,18,PROGRAM*%
%TO.N,unconnected-(U7-PROGRAM-Pad18)*%
X132960000Y-65980000D03*
%TO.P,U7,19,ON_OFF*%
%TO.N,unconnected-(U7-ON_OFF-Pad19)*%
X135500000Y-65980000D03*
%TO.P,U7,20,13_SCK_CRX1_LED*%
%TO.N,/SCLK*%
X138040000Y-65980000D03*
%TO.P,U7,16,3V3*%
%TO.N,unconnected-(U7-3V3-Pad16)*%
X127880000Y-65980000D03*
%TO.P,U7,15,VBAT*%
%TO.N,unconnected-(U7-VBAT-Pad15)*%
X125340000Y-65980000D03*
%TO.P,U7,14,12_MISO_MQSL*%
%TO.N,unconnected-(U7-12_MISO_MQSL-Pad14)*%
X122800000Y-65980000D03*
%TO.P,U7,21,14_A0_TX3_SPDIF_OUT*%
%TO.N,/x_stage2*%
X138040000Y-63440000D03*
%TO.P,U7,22,15_A1_RX3_SPDIF_IN*%
%TO.N,/y_stage2*%
X138040000Y-60900000D03*
%TO.P,U7,23,16_A2_RX4_SCL1*%
%TO.N,/sum_stage2*%
X138040000Y-58360000D03*
%TO.P,U7,24,17_A3_TX4_SDA1*%
%TO.N,unconnected-(U7-17_A3_TX4_SDA1-Pad24)*%
X138040000Y-55820000D03*
%TO.P,U7,25,18_A4_SDA0*%
%TO.N,unconnected-(U7-18_A4_SDA0-Pad25)*%
X138040000Y-53280000D03*
%TO.P,U7,26,19_A5_SCL0*%
%TO.N,unconnected-(U7-19_A5_SCL0-Pad26)*%
X138040000Y-50740000D03*
%TO.P,U7,27,20_A6_TX5_LRCLK1*%
%TO.N,unconnected-(U7-20_A6_TX5_LRCLK1-Pad27)*%
X138040000Y-48200000D03*
%TO.P,U7,28,21_A7_RX5_BCLK1*%
%TO.N,unconnected-(U7-21_A7_RX5_BCLK1-Pad28)*%
X138040000Y-45660000D03*
%TO.P,U7,29,22_A8_CTX1*%
%TO.N,unconnected-(U7-22_A8_CTX1-Pad29)*%
X138040000Y-43120000D03*
%TO.P,U7,30,23_A9_CRX1_MCLK1*%
%TO.N,unconnected-(U7-23_A9_CRX1_MCLK1-Pad30)*%
X138040000Y-40580000D03*
%TO.P,U7,31,3V3*%
%TO.N,unconnected-(U7-3V3-Pad31)*%
X138040000Y-38040000D03*
%TO.P,U7,32,GND*%
%TO.N,GND*%
X138040000Y-35500000D03*
%TO.P,U7,33,VIN*%
%TO.N,unconnected-(U7-VIN-Pad33)*%
X138040000Y-32960000D03*
%TO.P,U7,34,VUSB*%
%TO.N,unconnected-(U7-VUSB-Pad34)*%
X135500000Y-35500000D03*
%TO.P,U7,13,11_MOSI_CTX1*%
%TO.N,/DIN*%
X122800000Y-63440000D03*
%TO.P,U7,12,10_CS_MQSR*%
%TO.N,/FCLK_Y*%
X122800000Y-60900000D03*
%TO.P,U7,11,9_OUT1C*%
%TO.N,/FCLK_X*%
X122800000Y-58360000D03*
%TO.P,U7,10,8_TX2_IN1*%
%TO.N,unconnected-(U7-8_TX2_IN1-Pad10)*%
X122800000Y-55820000D03*
%TO.P,U7,9,7_RX2_OUT1A*%
%TO.N,/SYNC*%
X122800000Y-53280000D03*
%TO.P,U7,8,6_OUT1D*%
%TO.N,unconnected-(U7-6_OUT1D-Pad8)*%
X122800000Y-50740000D03*
%TO.P,U7,7,5_IN2*%
%TO.N,/EN*%
X122800000Y-48200000D03*
%TO.P,U7,6,4_BCLK2*%
%TO.N,unconnected-(U7-4_BCLK2-Pad6)*%
X122800000Y-45660000D03*
%TO.P,U7,5,3_LRCLK2*%
%TO.N,unconnected-(U7-3_LRCLK2-Pad5)*%
X122800000Y-43120000D03*
%TO.P,U7,4,2_OUT2*%
%TO.N,unconnected-(U7-2_OUT2-Pad4)*%
X122800000Y-40580000D03*
%TO.P,U7,3,1_TX1_CTX2_MISO1*%
%TO.N,unconnected-(U7-1_TX1_CTX2_MISO1-Pad3)*%
X122800000Y-38040000D03*
%TO.P,U7,2,0_RX1_CRX2_CS1*%
%TO.N,unconnected-(U7-0_RX1_CRX2_CS1-Pad2)*%
X122800000Y-35500000D03*
%TO.P,U7,1,GND*%
%TO.N,GND*%
X122800000Y-32960000D03*
%TO.P,U7,35,24_A10_TX6_SCL2*%
%TO.N,unconnected-(U7-24_A10_TX6_SCL2-Pad35)*%
X135500000Y-60900000D03*
%TO.P,U7,36,25_A11_RX6_SDA2*%
%TO.N,unconnected-(U7-25_A11_RX6_SDA2-Pad36)*%
X135500000Y-58360000D03*
%TO.P,U7,37,26_A12_MOSI1*%
%TO.N,unconnected-(U7-26_A12_MOSI1-Pad37)*%
X132960000Y-60900000D03*
%TO.P,U7,38,27_A13_SCK1*%
%TO.N,unconnected-(U7-27_A13_SCK1-Pad38)*%
X132960000Y-58360000D03*
%TO.P,U7,39,28_RX7*%
%TO.N,unconnected-(U7-28_RX7-Pad39)*%
X130420000Y-60900000D03*
%TO.P,U7,40,29_TX7*%
%TO.N,unconnected-(U7-29_TX7-Pad40)*%
X130420000Y-58360000D03*
%TO.P,U7,41,30_CRX3*%
%TO.N,unconnected-(U7-30_CRX3-Pad41)*%
X127880000Y-60900000D03*
%TO.P,U7,42,31_CTX3*%
%TO.N,unconnected-(U7-31_CTX3-Pad42)*%
X127880000Y-58360000D03*
%TO.P,U7,43,32_OUT1B*%
%TO.N,unconnected-(U7-32_OUT1B-Pad43)*%
X125340000Y-60900000D03*
%TO.P,U7,44,33_MCLK2*%
%TO.N,unconnected-(U7-33_MCLK2-Pad44)*%
X125340000Y-58360000D03*
%TD*%
D11*
%TO.P,J4,1,1*%
%TO.N,unconnected-(J4-Pad1)*%
X132230000Y-73500000D03*
%TO.P,J4,2,2*%
%TO.N,unconnected-(J4-Pad2)*%
X133500000Y-73500000D03*
%TO.P,J4,3,3*%
%TO.N,+5V*%
X132230000Y-74770000D03*
%TO.P,J4,4,4*%
%TO.N,GND*%
X133500000Y-74770000D03*
%TO.P,J4,5,5*%
%TO.N,/EN*%
X132230000Y-76040000D03*
%TO.P,J4,6,6*%
%TO.N,/DIN*%
X133500000Y-76040000D03*
%TO.P,J4,7,7*%
%TO.N,/SYNC*%
X132230000Y-77310000D03*
%TO.P,J4,8,8*%
%TO.N,/SCLK*%
X133500000Y-77310000D03*
%TO.P,J4,9,9*%
%TO.N,/FCLK_X*%
X132230000Y-78580000D03*
%TO.P,J4,10,10*%
%TO.N,/FCLK_Y*%
X133500000Y-78580000D03*
%TD*%
D12*
%TO.P,J3,1,Pin_1*%
%TO.N,GND*%
X56500000Y-36500000D03*
D13*
%TO.P,J3,2,Pin_2*%
%TO.N,+15V*%
X56500000Y-41580000D03*
%TO.P,J3,3,Pin_3*%
%TO.N,-15V*%
X56500000Y-46660000D03*
%TO.P,J3,4,Pin_4*%
%TO.N,/x+*%
X56500000Y-51740000D03*
%TO.P,J3,5,Pin_5*%
%TO.N,/y+*%
X56500000Y-56820000D03*
%TO.P,J3,6,Pin_6*%
%TO.N,/sum*%
X56500000Y-61900000D03*
%TD*%
D14*
%TO.P,U11,1,BAL*%
%TO.N,unconnected-(U11-BAL-Pad1)*%
X100195000Y-41690000D03*
D10*
%TO.P,U11,2,-*%
%TO.N,Net-(U11--)*%
X100195000Y-44230000D03*
%TO.P,U11,3,+*%
%TO.N,GND*%
X100195000Y-46770000D03*
%TO.P,U11,4,V-*%
%TO.N,-15V*%
X100195000Y-49310000D03*
%TO.P,U11,5,COMP*%
%TO.N,unconnected-(U11-COMP-Pad5)*%
X107815000Y-49310000D03*
%TO.P,U11,6*%
%TO.N,/x_stage2*%
X107815000Y-46770000D03*
%TO.P,U11,7,V+*%
%TO.N,+15V*%
X107815000Y-44230000D03*
%TO.P,U11,8,C/B*%
%TO.N,unconnected-(U11-C{slash}B-Pad8)*%
X107815000Y-41690000D03*
%TD*%
D14*
%TO.P,U10,1,BAL*%
%TO.N,unconnected-(U10-BAL-Pad1)*%
X81195000Y-39690000D03*
D10*
%TO.P,U10,2,-*%
%TO.N,Net-(U10--)*%
X81195000Y-42230000D03*
%TO.P,U10,3,+*%
%TO.N,GND*%
X81195000Y-44770000D03*
%TO.P,U10,4,V-*%
%TO.N,-15V*%
X81195000Y-47310000D03*
%TO.P,U10,5,COMP*%
%TO.N,unconnected-(U10-COMP-Pad5)*%
X88815000Y-47310000D03*
%TO.P,U10,6*%
%TO.N,/x_stage1*%
X88815000Y-44770000D03*
%TO.P,U10,7,V+*%
%TO.N,+15V*%
X88815000Y-42230000D03*
%TO.P,U10,8,C/B*%
%TO.N,unconnected-(U10-C{slash}B-Pad8)*%
X88815000Y-39690000D03*
%TD*%
D14*
%TO.P,U6,1,BAL*%
%TO.N,unconnected-(U6-BAL-Pad1)*%
X101195000Y-91690000D03*
D10*
%TO.P,U6,2,-*%
%TO.N,Net-(U6--)*%
X101195000Y-94230000D03*
%TO.P,U6,3,+*%
%TO.N,GND*%
X101195000Y-96770000D03*
%TO.P,U6,4,V-*%
%TO.N,-15V*%
X101195000Y-99310000D03*
%TO.P,U6,5,COMP*%
%TO.N,unconnected-(U6-COMP-Pad5)*%
X108815000Y-99310000D03*
%TO.P,U6,6*%
%TO.N,/sum_stage2*%
X108815000Y-96770000D03*
%TO.P,U6,7,V+*%
%TO.N,+15V*%
X108815000Y-94230000D03*
%TO.P,U6,8,C/B*%
%TO.N,unconnected-(U6-C{slash}B-Pad8)*%
X108815000Y-91690000D03*
%TD*%
D14*
%TO.P,U5,1,BAL*%
%TO.N,unconnected-(U5-BAL-Pad1)*%
X78195000Y-90690000D03*
D10*
%TO.P,U5,2,-*%
%TO.N,Net-(U5--)*%
X78195000Y-93230000D03*
%TO.P,U5,3,+*%
%TO.N,GND*%
X78195000Y-95770000D03*
%TO.P,U5,4,V-*%
%TO.N,-15V*%
X78195000Y-98310000D03*
%TO.P,U5,5,COMP*%
%TO.N,unconnected-(U5-COMP-Pad5)*%
X85815000Y-98310000D03*
%TO.P,U5,6*%
%TO.N,/sum_stage1*%
X85815000Y-95770000D03*
%TO.P,U5,7,V+*%
%TO.N,+15V*%
X85815000Y-93230000D03*
%TO.P,U5,8,C/B*%
%TO.N,unconnected-(U5-C{slash}B-Pad8)*%
X85815000Y-90690000D03*
%TD*%
D14*
%TO.P,U3,1,BAL*%
%TO.N,unconnected-(U3-BAL-Pad1)*%
X102195000Y-66690000D03*
D10*
%TO.P,U3,2,-*%
%TO.N,Net-(U3--)*%
X102195000Y-69230000D03*
%TO.P,U3,3,+*%
%TO.N,GND*%
X102195000Y-71770000D03*
%TO.P,U3,4,V-*%
%TO.N,-15V*%
X102195000Y-74310000D03*
%TO.P,U3,5,COMP*%
%TO.N,unconnected-(U3-COMP-Pad5)*%
X109815000Y-74310000D03*
%TO.P,U3,6*%
%TO.N,/y_stage2*%
X109815000Y-71770000D03*
%TO.P,U3,7,V+*%
%TO.N,+15V*%
X109815000Y-69230000D03*
%TO.P,U3,8,C/B*%
%TO.N,unconnected-(U3-C{slash}B-Pad8)*%
X109815000Y-66690000D03*
%TD*%
D14*
%TO.P,U1,1,BAL*%
%TO.N,unconnected-(U1-BAL-Pad1)*%
X81695000Y-65190000D03*
D10*
%TO.P,U1,2,-*%
%TO.N,Net-(U1--)*%
X81695000Y-67730000D03*
%TO.P,U1,3,+*%
%TO.N,GND*%
X81695000Y-70270000D03*
%TO.P,U1,4,V-*%
%TO.N,-15V*%
X81695000Y-72810000D03*
%TO.P,U1,5,COMP*%
%TO.N,unconnected-(U1-COMP-Pad5)*%
X89315000Y-72810000D03*
%TO.P,U1,6*%
%TO.N,/y_stage1*%
X89315000Y-70270000D03*
%TO.P,U1,7,V+*%
%TO.N,+15V*%
X89315000Y-67730000D03*
%TO.P,U1,8,C/B*%
%TO.N,unconnected-(U1-C{slash}B-Pad8)*%
X89315000Y-65190000D03*
%TD*%
D15*
%TO.P,H1,1*%
%TO.N,N/C*%
X44500000Y-28500000D03*
D16*
X44500000Y-28500000D03*
%TD*%
%TO.P,H2,1*%
%TO.N,N/C*%
X44000000Y-102000000D03*
D15*
X44000000Y-102000000D03*
%TD*%
D16*
%TO.P,H3,1*%
%TO.N,N/C*%
X143000000Y-28500000D03*
D15*
X143000000Y-28500000D03*
%TD*%
%TO.P,H4,1*%
%TO.N,N/C*%
X143000000Y-101500000D03*
D16*
X143000000Y-101500000D03*
%TD*%
D17*
%TO.P,TP_EN1,1,1*%
%TO.N,/EN*%
X139000000Y-89000000D03*
%TD*%
%TO.P,SumStage1,1,1*%
%TO.N,/sum_stage1*%
X92000000Y-101000000D03*
%TD*%
%TO.P,SumStage2,1,1*%
%TO.N,/sum_stage2*%
X113000000Y-101500000D03*
%TD*%
%TO.P,GND3,1,1*%
%TO.N,GND*%
X97000000Y-89500000D03*
%TD*%
%TO.P,GND2,1,1*%
%TO.N,GND*%
X97500000Y-65000000D03*
%TD*%
%TO.P,YStage1,1,1*%
%TO.N,/y_stage1*%
X92000000Y-77000000D03*
%TD*%
%TO.P,YStage2,1,1*%
%TO.N,/y_stage2*%
X113500000Y-77000000D03*
%TD*%
%TO.P,GND4,1,1*%
%TO.N,GND*%
X139000000Y-97500000D03*
%TD*%
%TO.P,TP_DIN1,1,1*%
%TO.N,/DIN*%
X133000000Y-100500000D03*
%TD*%
%TO.P,TP_SYNC1,1,1*%
%TO.N,/SYNC*%
X133000000Y-92500000D03*
%TD*%
%TO.P,GND1,1,1*%
%TO.N,GND*%
X98500000Y-38000000D03*
%TD*%
%TO.P,XStage1,1,1*%
%TO.N,/x_stage1*%
X90500000Y-51000000D03*
%TD*%
%TO.P,XStage2,1,1*%
%TO.N,/x_stage2*%
X112500000Y-51500000D03*
%TD*%
D12*
%TO.P,J2,1,Pin_1*%
%TO.N,GND*%
X56500000Y-69500000D03*
D13*
%TO.P,J2,2,Pin_2*%
%TO.N,+15V*%
X56500000Y-74580000D03*
%TO.P,J2,3,Pin_3*%
%TO.N,-15V*%
X56500000Y-79660000D03*
%TO.P,J2,4,Pin_4*%
%TO.N,+5V*%
X56500000Y-84740000D03*
%TD*%
D18*
%TO.N,+5V*%
X69000000Y-72500000D03*
X67500000Y-74000000D03*
X65500000Y-76483765D03*
X64500000Y-78000000D03*
%TO.N,-15V*%
X77000000Y-75000000D03*
X71325735Y-77174265D03*
X72500000Y-76500000D03*
%TO.N,/sum*%
X74000000Y-92500000D03*
X58000000Y-63000000D03*
%TO.N,/y+*%
X77000000Y-62500000D03*
X69400000Y-60500000D03*
X71000000Y-60500000D03*
X58500000Y-57500000D03*
%TO.N,+5V*%
X70000000Y-68500000D03*
%TO.N,/x_stage1*%
X94500000Y-44500000D03*
%TO.N,+15V*%
X92500000Y-43000000D03*
%TO.N,Net-(U10--)*%
X78500000Y-41500000D03*
%TO.N,+15V*%
X57500000Y-98500000D03*
X74500000Y-98500000D03*
%TO.N,GND*%
X121500000Y-34500000D03*
X119500000Y-36000000D03*
%TO.N,-15V*%
X76500000Y-98000000D03*
X70500000Y-94578500D03*
%TO.N,+15V*%
X76500000Y-96500000D03*
%TO.N,/sum_stage2*%
X112000000Y-97000000D03*
X140400000Y-58500000D03*
%TO.N,/y_stage2*%
X138973605Y-61657866D03*
X111500000Y-72000000D03*
%TO.N,/x_stage2*%
X116500000Y-48000000D03*
X114500000Y-50000000D03*
%TO.N,/DIN*%
X137500000Y-75000000D03*
%TO.N,/EN*%
X130000000Y-80500000D03*
X138000000Y-86000000D03*
X131600000Y-80500000D03*
X131000000Y-76040000D03*
%TO.N,/SYNC*%
X131000000Y-77980000D03*
X131505040Y-86505040D03*
%TO.N,/FCLK_Y*%
X117500000Y-69000000D03*
X119500000Y-61000000D03*
%TO.N,/SCLK*%
X136016349Y-75483651D03*
X135000000Y-77000000D03*
%TO.N,/DIN*%
X135016349Y-74483651D03*
X134500000Y-76000000D03*
%TO.N,/FCLK_X*%
X116800000Y-60500000D03*
X118600000Y-58500000D03*
%TO.N,/SYNC*%
X118600000Y-53500000D03*
X117400000Y-55000000D03*
%TO.N,+5V*%
X70634265Y-54865735D03*
%TO.N,-15V*%
X80000000Y-65000000D03*
X80000000Y-67000000D03*
%TD*%
D19*
%TO.N,+5V*%
X132230000Y-74770000D02*
X130669000Y-73209000D01*
X69791000Y-71709000D02*
X69000000Y-72500000D01*
X130669000Y-73209000D02*
X91271050Y-73209000D01*
X91271050Y-73209000D02*
X89771050Y-71709000D01*
X89771050Y-71709000D02*
X69791000Y-71709000D01*
X56500000Y-84740000D02*
X63240000Y-78000000D01*
X63240000Y-78000000D02*
X64500000Y-78000000D01*
X65500000Y-76483765D02*
X65500000Y-76000000D01*
X65500000Y-76000000D02*
X67500000Y-74000000D01*
D20*
%TO.N,-15V*%
X56500000Y-79660000D02*
X58985735Y-77174265D01*
X58985735Y-77174265D02*
X71325735Y-77174265D01*
X72500000Y-76500000D02*
X75500000Y-76500000D01*
X75500000Y-76500000D02*
X77000000Y-75000000D01*
%TO.N,+15V*%
X56500000Y-41580000D02*
X58191500Y-43271500D01*
X58191500Y-43271500D02*
X58191500Y-47656357D01*
X58191500Y-47656357D02*
X54808500Y-51039357D01*
X54808500Y-51039357D02*
X54808500Y-72888500D01*
X54808500Y-72888500D02*
X56500000Y-74580000D01*
%TO.N,-15V*%
X56500000Y-79660000D02*
X53000000Y-76160000D01*
X53000000Y-76160000D02*
X53000000Y-50160000D01*
X53000000Y-50160000D02*
X56500000Y-46660000D01*
D19*
%TO.N,/sum*%
X74000000Y-79000000D02*
X74000000Y-92500000D01*
X58000000Y-63000000D02*
X74000000Y-79000000D01*
%TO.N,/y+*%
X75000000Y-60500000D02*
X77000000Y-62500000D01*
X71000000Y-60500000D02*
X75000000Y-60500000D01*
X58500000Y-57500000D02*
X66400000Y-57500000D01*
X66400000Y-57500000D02*
X69400000Y-60500000D01*
%TO.N,+5V*%
X70000000Y-56000000D02*
X70000000Y-68500000D01*
D20*
%TO.N,-15V*%
X81695000Y-72810000D02*
X83195000Y-74310000D01*
X83195000Y-74310000D02*
X102195000Y-74310000D01*
D19*
%TO.N,/x_stage1*%
X88815000Y-44770000D02*
X88815000Y-44685000D01*
X89000000Y-44500000D02*
X94500000Y-44500000D01*
X88815000Y-44685000D02*
X89000000Y-44500000D01*
D20*
%TO.N,+15V*%
X92500000Y-43000000D02*
X106585000Y-43000000D01*
X106585000Y-43000000D02*
X107815000Y-44230000D01*
D19*
%TO.N,Net-(U10--)*%
X78500000Y-41500000D02*
X79230000Y-42230000D01*
X79230000Y-42230000D02*
X81195000Y-42230000D01*
D20*
%TO.N,+15V*%
X57500000Y-98500000D02*
X74500000Y-98500000D01*
%TO.N,-15V*%
X72921500Y-97000000D02*
X75500000Y-97000000D01*
X70500000Y-94578500D02*
X72921500Y-97000000D01*
X75500000Y-97000000D02*
X76500000Y-98000000D01*
%TO.N,+15V*%
X76500000Y-96500000D02*
X76961500Y-96961500D01*
X76961500Y-96961500D02*
X79038500Y-96961500D01*
X79038500Y-96961500D02*
X82770000Y-93230000D01*
X82770000Y-93230000D02*
X85815000Y-93230000D01*
%TO.N,GND*%
X121000000Y-34500000D02*
X119500000Y-36000000D01*
X121500000Y-34500000D02*
X121000000Y-34500000D01*
D19*
%TO.N,/sum_stage2*%
X140400000Y-85194422D02*
X137299000Y-88295422D01*
X140400000Y-58500000D02*
X140400000Y-85194422D01*
X137299000Y-88295422D02*
X120704578Y-88295422D01*
X120704578Y-88295422D02*
X112000000Y-97000000D01*
%TO.N,/y_stage2*%
X138973605Y-61657866D02*
X139315735Y-61999996D01*
X139315735Y-61999996D02*
X139315735Y-66684265D01*
X134000000Y-72000000D02*
X111500000Y-72000000D01*
X139315735Y-66684265D02*
X134000000Y-72000000D01*
%TO.N,/x_stage2*%
X114500000Y-50000000D02*
X116500000Y-48000000D01*
%TO.N,/DIN*%
X137500000Y-75000000D02*
X136983651Y-74483651D01*
X136983651Y-74483651D02*
X135016349Y-74483651D01*
%TO.N,/EN*%
X138000000Y-86000000D02*
X132500000Y-80500000D01*
X130000000Y-77040000D02*
X131000000Y-76040000D01*
X132500000Y-80500000D02*
X131600000Y-80500000D01*
X130000000Y-80500000D02*
X130000000Y-77040000D01*
%TO.N,/SYNC*%
X131000000Y-86000000D02*
X131000000Y-77980000D01*
X131505040Y-86505040D02*
X131000000Y-86000000D01*
%TO.N,/FCLK_Y*%
X117500000Y-63000000D02*
X119500000Y-61000000D01*
X117500000Y-69000000D02*
X117500000Y-63000000D01*
%TO.N,/SCLK*%
X135000000Y-77000000D02*
X135000000Y-76500000D01*
X135000000Y-76500000D02*
X136016349Y-75483651D01*
%TO.N,/DIN*%
X134500000Y-75000000D02*
X135016349Y-74483651D01*
X134500000Y-76000000D02*
X134500000Y-75000000D01*
%TO.N,/FCLK_X*%
X116800000Y-60500000D02*
X116800000Y-60300000D01*
X116800000Y-60300000D02*
X118600000Y-58500000D01*
%TO.N,/SYNC*%
X117400000Y-54700000D02*
X118600000Y-53500000D01*
X117400000Y-55000000D02*
X117400000Y-54700000D01*
%TO.N,+5V*%
X70000000Y-55500000D02*
X70634265Y-54865735D01*
X70000000Y-56000000D02*
X70000000Y-55500000D01*
D20*
%TO.N,-15V*%
X80000000Y-67000000D02*
X80000000Y-65000000D01*
%TD*%
M02*
